<?xml version="1.0" encoding="UTF-8" standalone="no"?>
<!DOCTYPE svg PUBLIC "-//W3C//DTD SVG 1.1//EN"
 "http://www.w3.org/Graphics/SVG/1.1/DTD/svg11.dtd">
<!-- Generated by graphviz version 5.0.0 (0)
 -->
<!-- Title: lexer Pages: 1 -->
<svg width="327pt" height="211pt"
 viewBox="0.00 0.00 326.60 211.29" xmlns="http://www.w3.org/2000/svg" xmlns:xlink="http://www.w3.org/1999/xlink">
<g id="graph0" class="graph" transform="scale(1 1) rotate(0) translate(4 207.29)">
<title>lexer</title>
<polygon fill="white" stroke="transparent" points="-4,4 -4,-207.29 322.6,-207.29 322.6,4 -4,4"/>
<!-- ENTRY -->
<g id="node1" class="node">
<title>ENTRY</title>
<ellipse fill="black" stroke="black" cx="1.8" cy="-116.29" rx="1.8" ry="1.8"/>
</g>
<!-- 2 -->
<g id="node3" class="node">
<title>2</title>
<ellipse fill="none" stroke="black" cx="95.1" cy="-97.29" rx="23.5" ry="23.5"/>
<ellipse fill="none" stroke="black" cx="95.1" cy="-97.29" rx="27.5" ry="27.5"/>
<text text-anchor="middle" x="95.1" y="-93.59" font-family="Times,serif" font-size="14.00">2</text>
</g>
<!-- ENTRY&#45;&gt;2 -->
<g id="edge9" class="edge">
<title>ENTRY&#45;&gt;2</title>
<path fill="none" stroke="black" d="M3.83,-116.08C9.23,-114.95 35,-109.59 57.63,-104.88"/>
<polygon fill="black" stroke="black" points="58.65,-108.24 67.72,-102.78 57.22,-101.39 58.65,-108.24"/>
<text text-anchor="middle" x="35.6" y="-115.09" font-family="Times,serif" font-size="14.00">IN</text>
</g>
<!-- en_2 -->
<g id="node2" class="node">
<title>en_2</title>
<ellipse fill="black" stroke="black" cx="1.8" cy="-78.29" rx="1.8" ry="1.8"/>
</g>
<!-- en_2&#45;&gt;2 -->
<g id="edge10" class="edge">
<title>en_2&#45;&gt;2</title>
<path fill="none" stroke="black" d="M3.96,-78.5C9.23,-79.45 31.46,-83.51 49.6,-87.29 52.43,-87.88 55.37,-88.51 58.31,-89.15"/>
<polygon fill="black" stroke="black" points="57.73,-92.6 68.25,-91.34 59.23,-85.77 57.73,-92.6"/>
<text text-anchor="middle" x="35.6" y="-91.09" font-family="Times,serif" font-size="14.00">main</text>
</g>
<!-- 2&#45;&gt;2 -->
<g id="edge5" class="edge">
<title>2&#45;&gt;2</title>
<path fill="none" stroke="black" d="M89.67,-124.38C89.5,-134.48 91.31,-142.79 95.1,-142.79 97.47,-142.79 99.07,-139.54 99.89,-134.64"/>
<polygon fill="black" stroke="black" points="103.4,-134.58 100.53,-124.38 96.41,-134.15 103.4,-134.58"/>
<text text-anchor="middle" x="95.1" y="-146.59" font-family="Times,serif" font-size="14.00">ts / 9..13 / last1, initts</text>
</g>
<!-- 2&#45;&gt;2 -->
<g id="edge6" class="edge">
<title>2&#45;&gt;2</title>
<path fill="none" stroke="black" d="M85.45,-123.05C82.2,-141.9 85.41,-160.79 95.1,-160.79 103.05,-160.79 106.64,-148.08 105.88,-133.11"/>
<polygon fill="black" stroke="black" points="109.34,-132.6 104.75,-123.05 102.38,-133.38 109.34,-132.6"/>
<text text-anchor="middle" x="95.1" y="-164.59" font-family="Times,serif" font-size="14.00">ts / 32 / last1, initts</text>
</g>
<!-- 1 -->
<g id="node4" class="node">
<title>1</title>
<ellipse fill="none" stroke="black" cx="295.1" cy="-97.29" rx="23.5" ry="23.5"/>
<text text-anchor="middle" x="295.1" y="-93.59" font-family="Times,serif" font-size="14.00">1</text>
</g>
<!-- 2&#45;&gt;1 -->
<g id="edge7" class="edge">
<title>2&#45;&gt;1</title>
<path fill="none" stroke="black" d="M104.51,-123.49C111.37,-140.13 122.87,-160.33 140.6,-170.29 184.39,-194.88 210.32,-195.77 253.6,-170.29 268.66,-161.42 278.52,-144.71 284.73,-129.51"/>
<polygon fill="black" stroke="black" points="288.12,-130.44 288.31,-119.84 281.56,-128.01 288.12,-130.44"/>
<text text-anchor="middle" x="197.1" y="-192.09" font-family="Times,serif" font-size="14.00">ts / 65..90</text>
</g>
<!-- 2&#45;&gt;1 -->
<g id="edge8" class="edge">
<title>2&#45;&gt;1</title>
<path fill="none" stroke="black" d="M120.01,-109.58C126.52,-112.34 133.69,-114.88 140.6,-116.29 189.8,-126.36 204.58,-127.22 253.6,-116.29 257.3,-115.46 261.07,-114.26 264.74,-112.86"/>
<polygon fill="black" stroke="black" points="266.34,-115.98 274.12,-108.78 263.55,-109.56 266.34,-115.98"/>
<text text-anchor="middle" x="197.1" y="-127.09" font-family="Times,serif" font-size="14.00">ts / 97..122</text>
</g>
<!-- 1&#45;&gt;2 -->
<g id="edge1" class="edge">
<title>1&#45;&gt;2</title>
<path fill="none" stroke="black" d="M271.49,-97.29C237.65,-97.29 173.47,-97.29 132.84,-97.29"/>
<polygon fill="black" stroke="black" points="132.8,-93.79 122.8,-97.29 132.8,-100.79 132.8,-93.79"/>
<text text-anchor="middle" x="197.1" y="-101.09" font-family="Times,serif" font-size="14.00">48..57 / last2, initts</text>
</g>
<!-- 1&#45;&gt;2 -->
<g id="edge2" class="edge">
<title>1&#45;&gt;2</title>
<path fill="none" stroke="black" d="M274.12,-85.8C267.77,-82.74 260.57,-79.85 253.6,-78.29 204.58,-67.36 189.8,-68.23 140.6,-78.29 136.93,-79.04 133.18,-80.11 129.5,-81.36"/>
<polygon fill="black" stroke="black" points="128.09,-78.15 120.01,-85 130.6,-84.69 128.09,-78.15"/>
<text text-anchor="middle" x="197.1" y="-82.09" font-family="Times,serif" font-size="14.00">65..90 / last2, initts</text>
</g>
<!-- 1&#45;&gt;2 -->
<g id="edge3" class="edge">
<title>1&#45;&gt;2</title>
<path fill="none" stroke="black" d="M282.06,-77.5C275.06,-67.97 265.31,-57.51 253.6,-52.29 207.72,-31.86 186.95,-32.94 140.6,-52.29 132.44,-55.7 125.01,-61.41 118.66,-67.65"/>
<polygon fill="black" stroke="black" points="115.98,-65.39 111.72,-75.09 121.1,-70.16 115.98,-65.39"/>
<text text-anchor="middle" x="197.1" y="-56.09" font-family="Times,serif" font-size="14.00">95 / last2, initts</text>
</g>
<!-- 1&#45;&gt;2 -->
<g id="edge4" class="edge">
<title>1&#45;&gt;2</title>
<path fill="none" stroke="black" d="M289.08,-74.36C283.7,-55.91 273.16,-31.17 253.6,-19.29 210.68,6.79 184.03,5.93 140.6,-19.29 124.86,-28.43 114.22,-45.46 107.3,-61.28"/>
<polygon fill="black" stroke="black" points="103.92,-60.31 103.46,-70.9 110.42,-62.91 103.92,-60.31"/>
<text text-anchor="middle" x="197.1" y="-23.09" font-family="Times,serif" font-size="14.00">97..122 / last2, initts</text>
</g>
</g>
</svg>
